<svg width="1009" height="1000" viewBox="0 0 1009 1000" fill="none" xmlns="http://www.w3.org/2000/svg">
<path d="M429.354 -0.00012207L577.406 -9.61839e-05L577.406 92.0501C577.406 132.934 544.264 166.076 503.38 166.076V166.076C462.496 166.076 429.353 132.934 429.353 92.0501L429.354 -0.00012207Z" fill="#B567DA"/>
<path d="M200.514 86.7704L95.8252 191.46L263.949 359.583C396.336 491.971 610.979 491.97 743.367 359.583L911.49 191.46L806.801 86.7704L571.54 322.032C534.05 359.522 473.266 359.522 435.776 322.032L200.514 86.7704Z" fill="#B567DA"/>
<path d="M46.2854 421.629L95.0477 421.628C170.47 421.628 236.859 468.57 292.693 519.276C350.235 571.532 426.808 607.016 503.701 607.016C580.593 607.016 657.167 571.532 714.708 519.276C770.542 468.57 836.931 421.629 912.354 421.629L962.343 421.629C987.939 421.629 1008.69 442.379 1008.69 467.976L1008.69 523.334C1008.69 548.931 987.939 569.681 962.343 569.681L707.925 569.681C698.749 569.681 694.154 580.775 700.642 587.263L878.266 764.888C896.366 782.988 896.366 812.333 878.266 830.432L839.122 869.577C821.022 887.677 791.677 887.677 773.577 869.577L595.953 691.953C589.465 685.465 578.371 690.06 578.371 699.235L578.371 953.653C578.371 979.25 557.621 1000 532.024 1000L476.665 1000C451.068 1000 430.318 979.25 430.318 953.653L430.318 696.959C430.318 687.784 419.224 683.188 412.736 689.677L232.835 869.577C214.736 887.677 185.39 887.677 167.291 869.577L128.146 830.433C110.047 812.333 110.047 782.988 128.146 764.888L305.771 587.263C312.259 580.775 307.664 569.681 298.488 569.681L46.3464 569.681C20.7497 569.681 -0.000555182 548.931 -0.000552945 523.334L-0.000548105 467.975C-0.000545869 442.399 20.7168 421.661 46.2854 421.629Z" fill="#A3CD47"/>
</svg>
