<svg width="1567" height="1554" viewBox="0 0 1567 1554" fill="none" xmlns="http://www.w3.org/2000/svg">
<path d="M667 -0.00012207L897 -8.18558e-05L897 143C897 206.513 845.513 258 782 258C718.487 258 667 206.513 667 143V-0.00012207Z" fill="#B567DA"/>
<path d="M311.499 134.798L148.864 297.432L542.723 691.291C675.111 823.679 889.754 823.679 1022.14 691.291L1416 297.432L1253.37 134.798L850.314 537.849C812.824 575.339 752.04 575.339 714.55 537.849L311.499 134.798Z" fill="#B567DA"/>
<path d="M71.9053 655H215.967C291.389 655 358.051 700.456 407.104 757.747C498.86 864.912 640.329 943 782.5 943C924.671 943 1066.14 864.912 1157.9 757.748C1206.95 700.456 1273.61 655 1349.03 655H1495C1534.76 655 1567 687.235 1567 727V813C1567 852.764 1534.76 885 1495 885L1099.76 885C1085.51 885 1078.37 902.234 1088.45 912.314L1364.39 1188.25C1392.51 1216.37 1392.51 1261.96 1364.39 1290.08L1303.58 1350.89C1275.46 1379.01 1229.87 1379.01 1201.75 1350.89L925.814 1074.95C915.734 1064.87 898.5 1072.01 898.5 1086.26L898.5 1481.5C898.5 1521.26 866.264 1553.5 826.5 1553.5H740.5C700.735 1553.5 668.5 1521.26 668.5 1481.5L668.5 1082.73C668.5 1068.47 651.266 1061.33 641.186 1071.41L361.711 1350.89C333.593 1379.01 288.005 1379.01 259.887 1350.89L199.076 1290.08C170.958 1261.96 170.958 1216.37 199.076 1188.25L475.016 912.314C485.095 902.234 477.957 885 463.702 885H72C32.2355 885 -3.47632e-06 852.764 0 813L7.51836e-06 727C1.09919e-05 687.267 32.1843 655.051 71.9053 655Z" fill="#A3CD47"/>
</svg>
